<mxfile host="app.diagrams.net" agent="Mozilla/5.0 (Windows NT 10.0; Win64; x64) AppleWebKit/537.36 (KHTML, like Gecko) Chrome/130.0.0.0 YaBrowser/24.12.0.0 Safari/537.36" version="25.0.3">
  <diagram name="Страница — 1" id="Qg7TNX0esdktX7MQRUZs">
    <mxGraphModel dx="1147" dy="663" grid="1" gridSize="10" guides="1" tooltips="1" connect="1" arrows="1" fold="1" page="1" pageScale="1" pageWidth="827" pageHeight="900" math="0" shadow="0">
      <root>
        <mxCell id="0" />
        <mxCell id="1" parent="0" />
        <mxCell id="b8q81cn3WwMqUTTSJ5ZS-9" value="MyClient" style="swimlane;fontStyle=1;align=center;verticalAlign=top;childLayout=stackLayout;horizontal=1;startSize=26;horizontalStack=0;resizeParent=1;resizeParentMax=0;resizeLast=0;collapsible=1;marginBottom=0;whiteSpace=wrap;html=1;" parent="1" vertex="1">
          <mxGeometry x="209" y="550" width="410" height="190" as="geometry" />
        </mxCell>
        <mxCell id="b8q81cn3WwMqUTTSJ5ZS-10" value="&lt;div&gt;- ClientID: int&lt;/div&gt;&lt;div&gt;- LastName: string&lt;/div&gt;&lt;div&gt;- FirstName: str&lt;span style=&quot;background-color: initial;&quot;&gt;ing&lt;/span&gt;&lt;/div&gt;&lt;div&gt;- MiddleName: str&lt;span style=&quot;background-color: initial;&quot;&gt;ing&lt;/span&gt;&lt;/div&gt;&lt;div&gt;&lt;span style=&quot;background-color: initial;&quot;&gt;- Address: str&lt;/span&gt;&lt;span style=&quot;background-color: initial;&quot;&gt;ing&lt;/span&gt;&lt;/div&gt;&lt;div&gt;- Phone: str&lt;span style=&quot;background-color: initial;&quot;&gt;ing&lt;/span&gt;&lt;/div&gt;" style="text;strokeColor=none;fillColor=none;align=left;verticalAlign=top;spacingLeft=4;spacingRight=4;overflow=hidden;rotatable=0;points=[[0,0.5],[1,0.5]];portConstraint=eastwest;whiteSpace=wrap;html=1;" parent="b8q81cn3WwMqUTTSJ5ZS-9" vertex="1">
          <mxGeometry y="26" width="410" height="94" as="geometry" />
        </mxCell>
        <mxCell id="b8q81cn3WwMqUTTSJ5ZS-11" value="" style="line;strokeWidth=1;fillColor=none;align=left;verticalAlign=middle;spacingTop=-1;spacingLeft=3;spacingRight=3;rotatable=0;labelPosition=right;points=[];portConstraint=eastwest;strokeColor=inherit;" parent="b8q81cn3WwMqUTTSJ5ZS-9" vertex="1">
          <mxGeometry y="120" width="410" height="10" as="geometry" />
        </mxCell>
        <mxCell id="b8q81cn3WwMqUTTSJ5ZS-12" value="&lt;div&gt;+__init__(client_id, last_name, first_name, middle_name, address, phone)&lt;/div&gt;&lt;div&gt;+ to_dict(): dict&lt;div&gt;+ from_dict(data: Map): MyClient&lt;/div&gt;&lt;/div&gt;" style="text;strokeColor=none;fillColor=none;align=left;verticalAlign=top;spacingLeft=4;spacingRight=4;overflow=hidden;rotatable=0;points=[[0,0.5],[1,0.5]];portConstraint=eastwest;whiteSpace=wrap;html=1;" parent="b8q81cn3WwMqUTTSJ5ZS-9" vertex="1">
          <mxGeometry y="130" width="410" height="60" as="geometry" />
        </mxCell>
        <mxCell id="mC3Z1bk-kpkZX3rgGwqh-11" style="rounded=0;orthogonalLoop=1;jettySize=auto;html=1;endArrow=none;endFill=0;" edge="1" parent="1" source="b8q81cn3WwMqUTTSJ5ZS-14" target="b8q81cn3WwMqUTTSJ5ZS-9">
          <mxGeometry relative="1" as="geometry" />
        </mxCell>
        <mxCell id="b8q81cn3WwMqUTTSJ5ZS-13" value="MyClientRepDB" style="swimlane;fontStyle=1;align=center;verticalAlign=top;childLayout=stackLayout;horizontal=1;startSize=26;horizontalStack=0;resizeParent=1;resizeParentMax=0;resizeLast=0;collapsible=1;marginBottom=0;whiteSpace=wrap;html=1;" parent="1" vertex="1">
          <mxGeometry x="244" y="240" width="340" height="210" as="geometry" />
        </mxCell>
        <mxCell id="b8q81cn3WwMqUTTSJ5ZS-16" value="&lt;div&gt;+ __init__(host, user, password, database)&lt;/div&gt;&lt;div&gt;+get_by_id(client_id: int): MyClient&lt;/div&gt;&lt;div&gt;+get_k_n_short_list(k: int, n: int): List&amp;lt;MyClient&amp;gt;&lt;/div&gt;&lt;div&gt;+add(entity: MyClient): int&lt;/div&gt;&lt;div&gt;+replace_by_id(client_id: int, updated_entity: MyClient): bool&lt;/div&gt;&lt;div&gt;+delete_by_id(client_id: int): bool&lt;/div&gt;&lt;div&gt;+get_count(): int&lt;/div&gt;&lt;div&gt;+close(): void&lt;/div&gt;" style="text;strokeColor=none;fillColor=none;align=left;verticalAlign=top;spacingLeft=4;spacingRight=4;overflow=hidden;rotatable=0;points=[[0,0.5],[1,0.5]];portConstraint=eastwest;whiteSpace=wrap;html=1;" parent="b8q81cn3WwMqUTTSJ5ZS-13" vertex="1">
          <mxGeometry y="26" width="340" height="122" as="geometry" />
        </mxCell>
        <mxCell id="b8q81cn3WwMqUTTSJ5ZS-15" value="" style="line;strokeWidth=1;fillColor=none;align=left;verticalAlign=middle;spacingTop=-1;spacingLeft=3;spacingRight=3;rotatable=0;labelPosition=right;points=[];portConstraint=eastwest;strokeColor=inherit;" parent="b8q81cn3WwMqUTTSJ5ZS-13" vertex="1">
          <mxGeometry y="148" width="340" height="8" as="geometry" />
        </mxCell>
        <mxCell id="b8q81cn3WwMqUTTSJ5ZS-14" value="&lt;div&gt;-connection: mysql.connector.connect&lt;/div&gt;&lt;div&gt;-cursor: cursor&lt;/div&gt;" style="text;strokeColor=none;fillColor=none;align=left;verticalAlign=top;spacingLeft=4;spacingRight=4;overflow=hidden;rotatable=0;points=[[0,0.5],[1,0.5]];portConstraint=eastwest;whiteSpace=wrap;html=1;" parent="b8q81cn3WwMqUTTSJ5ZS-13" vertex="1">
          <mxGeometry y="156" width="340" height="54" as="geometry" />
        </mxCell>
        <mxCell id="mC3Z1bk-kpkZX3rgGwqh-12" value="1" style="text;html=1;align=center;verticalAlign=middle;resizable=0;points=[];autosize=1;strokeColor=none;fillColor=none;" vertex="1" parent="1">
          <mxGeometry x="390" y="444" width="30" height="30" as="geometry" />
        </mxCell>
        <mxCell id="mC3Z1bk-kpkZX3rgGwqh-13" value="&lt;font style=&quot;font-size: 18px;&quot;&gt;*&lt;/font&gt;" style="text;html=1;align=center;verticalAlign=middle;resizable=0;points=[];autosize=1;strokeColor=none;fillColor=none;" vertex="1" parent="1">
          <mxGeometry x="390" y="525" width="30" height="40" as="geometry" />
        </mxCell>
        <mxCell id="mC3Z1bk-kpkZX3rgGwqh-24" style="edgeStyle=orthogonalEdgeStyle;rounded=0;orthogonalLoop=1;jettySize=auto;html=1;endArrow=none;endFill=0;" edge="1" parent="1" source="mC3Z1bk-kpkZX3rgGwqh-15" target="b8q81cn3WwMqUTTSJ5ZS-13">
          <mxGeometry relative="1" as="geometry" />
        </mxCell>
        <mxCell id="mC3Z1bk-kpkZX3rgGwqh-15" value="DatabaseConnection" style="swimlane;fontStyle=1;align=center;verticalAlign=top;childLayout=stackLayout;horizontal=1;startSize=26;horizontalStack=0;resizeParent=1;resizeParentMax=0;resizeLast=0;collapsible=1;marginBottom=0;whiteSpace=wrap;html=1;" vertex="1" parent="1">
          <mxGeometry x="279" y="10" width="270" height="160" as="geometry" />
        </mxCell>
        <mxCell id="mC3Z1bk-kpkZX3rgGwqh-16" value="&lt;div&gt;- connection: mysql.connector.connect&lt;/div&gt;&lt;div&gt;- cursor: mysql.connector.cursor&lt;/div&gt;&lt;div&gt;- _instance: DatabaseConnection&lt;/div&gt;" style="text;strokeColor=none;fillColor=none;align=left;verticalAlign=top;spacingLeft=4;spacingRight=4;overflow=hidden;rotatable=0;points=[[0,0.5],[1,0.5]];portConstraint=eastwest;whiteSpace=wrap;html=1;" vertex="1" parent="mC3Z1bk-kpkZX3rgGwqh-15">
          <mxGeometry y="26" width="270" height="54" as="geometry" />
        </mxCell>
        <mxCell id="mC3Z1bk-kpkZX3rgGwqh-17" value="" style="line;strokeWidth=1;fillColor=none;align=left;verticalAlign=middle;spacingTop=-1;spacingLeft=3;spacingRight=3;rotatable=0;labelPosition=right;points=[];portConstraint=eastwest;strokeColor=inherit;" vertex="1" parent="mC3Z1bk-kpkZX3rgGwqh-15">
          <mxGeometry y="80" width="270" height="8" as="geometry" />
        </mxCell>
        <mxCell id="mC3Z1bk-kpkZX3rgGwqh-18" value="&lt;div&gt;+ __new__(host, user, password, database)&lt;/div&gt;&lt;div&gt;+ get_connection(): mysql.connector.connect&lt;/div&gt;&lt;div&gt;+ get_cursor(): mysql.connector.cursor&lt;/div&gt;&lt;div&gt;+ close(): void&lt;/div&gt;" style="text;strokeColor=none;fillColor=none;align=left;verticalAlign=top;spacingLeft=4;spacingRight=4;overflow=hidden;rotatable=0;points=[[0,0.5],[1,0.5]];portConstraint=eastwest;whiteSpace=wrap;html=1;" vertex="1" parent="mC3Z1bk-kpkZX3rgGwqh-15">
          <mxGeometry y="88" width="270" height="72" as="geometry" />
        </mxCell>
        <mxCell id="mC3Z1bk-kpkZX3rgGwqh-21" value="1" style="text;html=1;align=center;verticalAlign=middle;resizable=0;points=[];autosize=1;strokeColor=none;fillColor=none;" vertex="1" parent="1">
          <mxGeometry x="390" y="170" width="30" height="30" as="geometry" />
        </mxCell>
        <mxCell id="mC3Z1bk-kpkZX3rgGwqh-22" value="&lt;font style=&quot;font-size: 18px;&quot;&gt;*&lt;/font&gt;" style="text;html=1;align=center;verticalAlign=middle;resizable=0;points=[];autosize=1;strokeColor=none;fillColor=none;" vertex="1" parent="1">
          <mxGeometry x="390" y="213" width="30" height="40" as="geometry" />
        </mxCell>
      </root>
    </mxGraphModel>
  </diagram>
</mxfile>
